<?xml version="1.0" encoding="UTF-8"?>
<svg id="Calque_2" data-name="Calque 2" xmlns="http://www.w3.org/2000/svg" viewBox="0 0 154.9 133.24">
  <defs>
    <style>
      .cls-1 {
        fill: none;
        stroke: #fae9cc;
        stroke-miterlimit: 10;
        stroke-width: 3.63px;
      }

      .cls-2 {
        fill: #fae9cc;
      }
    </style>
  </defs>
  <g id="Content">
    <g>
      <g>
        <path class="cls-2" d="M79.16,120.9c-.2.58-.56,1.11-.96,1.89-.32-.58-.55-.89-.67-1.24-.34-.94-.63-1.9-.94-2.86-.61-1.91-1.18-3.83-1.79-5.74l-11.06-6.39c-3.85-.06-7.69-.36-11.52-.91-12.57-1.81-24.2-6.06-34.67-13.34-.21-.15-.43-.28-.86-.55.16.45.22.66.31.87,5.37,12.42,13.5,22.57,24.85,30.02,9.55,6.27,20.07,9.66,31.46,10.42,12.15.82,23.74-1.28,34.67-6.72.56-.28,1.1-.81,1.4-1.36.88-1.66,1.69-3.35,2.43-5.08,3.99-9.37,6.12-19.06,6.84-29l-36.42,21.03c-1.03,2.99-2.03,5.98-3.07,8.96Z"/>
        <path class="cls-2" d="M124.83,64.99c.57.23,2.66.45,3.18.76.51.3.71.58.68.86.02.27-.21.54-.68.83-.52.32-1.14.48-1.66.78-1.81,1.05-3.61,2.13-5.41,3.21-.51.3-.57.72-.49,1.32.46,3.66,1.04,7.32,1.22,11,.6,12.48-1.13,24.68-4.92,36.58-.07.24-.12.48-.22.87.35-.23.57-.35.77-.5,10.43-7.72,17.89-17.7,22.7-29.71.18-.46.25-1.01.22-1.51-.19-2.45-.33-4.91-.67-7.35-.74-5.32-1.92-10.51-3.66-15.52-4.13-8.4-9.73-15.63-16.87-21.59v16.36c1.7,1.57,3.66,2.73,5.81,3.61Z"/>
        <path class="cls-2" d="M14.93,66.62h-.03c-.73-2.16-1.37-4.37-1.93-6.61-.54-2.15-.96-4.33-1.47-6.64-.1.27-.17.42-.21.57-.75,2.94-2.31,5.39-4.46,7.5-1.77,1.74-3.69,3.24-6.02,4.19-.37.15-.78.63-.82.99.02.31.32.65.58.88.23.2,2.02.26,2.31.41,5.02,2.62,8.66,6.39,10.02,12.06.37,1.54.73,3.09,1.22,4.6.19.6.61,1.23,1.1,1.62,11.7,9.3,24.97,14.95,39.77,17.04.83.12,1.67.19,2.51.26.35.03.7.06,1.04.08l-1.25-.72c-19.45-6.42-33.45-18.61-42.37-36.23Z"/>
        <path class="cls-2" d="M36.26,42.91l36.15-20.87s.02-.04.02-.06c1.11-3.21,2.19-6.44,3.31-9.64.2-.58.56-1.11.96-1.89.32.58.55.89.67,1.24.34.94.63,1.9.94,2.86.63,1.97,1.22,3.96,1.84,5.93l10.74,6.2c3.94.05,7.87.35,11.79.92,12.57,1.81,24.2,6.06,34.67,13.34.21.15.43.28.86.55-.16-.45-.22-.66-.31-.87-5.37-12.42-13.5-22.57-24.85-30.02C103.49,4.32,92.96.93,81.58.17c-12.15-.82-23.74,1.28-34.67,6.72-.56.28-1.1.81-1.4,1.36-.88,1.66-1.69,3.35-2.43,5.08"/>
        <path class="cls-2" d="M30.06,68.24c-.57-.23-1.15-.45-1.68-.76-.51-.3-2.19-.86-2.19-.86-.02-.27.21-.54.68-.83.52-.32,1.14-.48,1.66-.78,1.81-1.05,3.61-2.13,5.41-3.21.51-.3.57-.72.49-1.32-.46-3.66-1.04-7.32-1.22-11-.6-12.48,1.13-24.68,4.92-36.58.07-.24.12-.48.22-.87-.35.23-.57.35-.77.5-10.43,7.72-17.89,17.7-22.7,29.71-.18.46-.25,1.01-.22,1.51.19,2.45.33,4.91.67,7.35.74,5.32,1.92,10.51,3.66,15.52h.07c4.2,8.55,9.89,15.88,17.18,21.9v-16.29c-1.78-1.76-3.88-3.03-6.2-3.98Z"/>
        <path class="cls-2" d="M154.31,65.74c-.23-.2-2.02-.26-2.31-.41-5.02-2.62-8.66-6.39-10.02-12.06-.37-1.54-.73-3.09-1.22-4.6-.19-.6-.61-1.23-1.1-1.62-11.7-9.3-24.97-14.95-39.77-17.04-.83-.12-1.67-.19-2.51-.26-.45-.04-.9-.07-1.34-.11l.94.54c19.78,6.36,34,18.63,43.01,36.43.73,2.16,1.37,4.37,1.93,6.61.54,2.15.96,4.33,1.47,6.64.1-.27.17-.42.21-.57.75-2.94,2.31-5.39,4.46-7.5,1.77-1.74,3.69-3.24,6.02-4.19.37-.15.78-.63.82-.99-.02-.31-.32-.65-.58-.88Z"/>
      </g>
      <polygon class="cls-1" points="114.01 87.8 114.01 45.81 77.64 24.82 41.28 45.81 41.28 87.8 77.64 108.8 114.01 87.8"/>
    </g>
  </g>
</svg>