<?xml version="1.0" encoding="UTF-8"?>
<svg id="Calque_2" data-name="Calque 2" xmlns="http://www.w3.org/2000/svg" viewBox="0 0 162.19 24.69">
  <defs>
    <style>
      .cls-1 {
        fill: #fff0d9;
      }
    </style>
  </defs>
  <g id="Content">
    <path class="cls-1" d="M162.19,11.25C117.75,11.25,79.25.55,78.87.44l-.68-.19-8.84,10.54L57,0l-.72.72c-5.33,5.33-34.8,9.41-45.7,10.54L0,12.35l10.57,1.09c10.9,1.12,40.36,5.19,45.7,10.54l.72.72,12.35-10.79,8.84,10.54.68-.19c.38-.11,38.88-10.81,83.32-10.81M57.04,21.75c-6.08-4.61-25.61-7.83-37.28-9.41,11.66-1.57,31.2-4.8,37.28-9.4l10.76,9.41-10.76,9.41ZM78.96,21.96l-8.07-9.61,8.07-9.61c4.25,1.13,27.7,7.12,57.75,9.61-30.04,2.49-53.5,8.48-57.75,9.61Z"/>
  </g>
</svg>