<?xml version="1.0" encoding="UTF-8"?>
<svg id="Calque_2" data-name="Calque 2" xmlns="http://www.w3.org/2000/svg" viewBox="0 0 138.7 24.69">
  <defs>
    <style>
      .cls-1 {
        fill: none;
      }

      .cls-2 {
        fill: #fff0d9;
      }
    </style>
  </defs>
  <g id="Content">
    <g>
      <path class="cls-1" d="M70.89,12.35l10.76,9.41c6.08-4.61,25.61-7.83,37.28-9.41-11.66-1.57-31.2-4.8-37.28-9.4l-10.76,9.41Z"/>
      <path class="cls-2" d="M128.12,11.26c-10.9-1.12-40.37-5.2-45.7-10.54l-.72-.72-12.35,10.79h0L57,0l-.72.72c-5.33,5.33-34.8,9.41-45.7,10.54L0,12.35l10.57,1.09c10.9,1.12,40.36,5.19,45.7,10.54l.72.72,12.35-10.79,12.35,10.79.72-.72c5.34-5.34,34.8-9.42,45.7-10.54l10.57-1.09-10.57-1.09ZM57.04,21.75c-6.08-4.61-25.61-7.83-37.28-9.41,11.66-1.57,31.2-4.8,37.28-9.4l10.76,9.41-10.76,9.41ZM81.65,21.75l-10.76-9.41,10.76-9.41c6.07,4.6,25.61,7.83,37.28,9.4-11.66,1.57-31.2,4.8-37.28,9.41Z"/>
    </g>
  </g>
</svg>