<?xml version="1.0" encoding="UTF-8"?>
<svg id="Calque_2" data-name="Calque 2" xmlns="http://www.w3.org/2000/svg" viewBox="0 0 75.1 189.23">
  <defs>
    <style>
      .cls-1 {
        fill: #fae9cc;
      }
    </style>
  </defs>
  <g id="Content">
    <path class="cls-1" d="M73.36,6.62c-3.12-3.7-8.97-6.43-15.79-6.62-7.99.97-15.21,4.48-22.22,10.52-10.91,9.35-14.23,19.1-15.6,23.4-1.37,4.29-2.14,9.94-2.14,15.98v4.29h-9.36l-5.65,6.05.97,2.14h14.04v8.85h-9.49l-5.65,6.05.97,2.14h14.17v40.85c0,4.06-.2,6.88-.79,9-1.79,1.68-3.96,3.5-6.45,5.44-1.09.85-2.05,1.66-3.29,2.55-1.11.8-2.46,1.68-3.69,2.51-1.13.77-2.13,1.5-3.37,2.3,0,0,17.68,7.56,26.86,47.15,9.18-39.59,26.86-47.15,26.86-47.15-.9-.58-1.55-1.09-2.39-1.65-2.06-1.38-4.15-2.77-5.87-4.05-.68-.5-1.17-.94-1.8-1.43-3.77-2.92-6.78-5.57-9.04-7.89-.33-2.11-.44-4.74-.44-8.16v-39.48h21.31c2.53-1.37,3.31-6.24,2.33-8.19h-23.65v-8.85h21.45c2.53-1.37,3.31-6.24,2.33-8.19h-23.78v-7.79c-.2-16.78,1.75-26.13,4.1-29.83,2.14-3.51,5.26-5.86,10.52-5.86,6.24,0,12.28,3.7,16.18,7.6,1.75,1.95,3.51,1.95,5.65.59,1.95-1.56,3.32-3.51,3.9-5.06.98-2.35.78-4.87-1.17-7.22ZM35.72,143.53s-6.5,6.3-8.51,12.42c-.14.42-.26.84-.35,1.25-.09-.42-.21-.83-.35-1.25-2.01-6.12-8.51-12.42-8.51-12.42l2.54-2.58,6.32-6.41,6.32,6.41,2.54,2.58Z"/>
  </g>
</svg>