<?xml version="1.0" encoding="UTF-8"?>
<svg id="Calque_2" data-name="Calque 2" xmlns="http://www.w3.org/2000/svg" viewBox="0 0 170.76 184.75">
  <defs>
    <style>
      .cls-1 {
        fill: #fae9cc;
      }
    </style>
  </defs>
  <g id="Content">
    <path class="cls-1" d="M164.71,35.6l-56.9-20.95v-5.41c0-5.1-4.14-9.24-9.24-9.24H9.24C4.14,0,0,4.14,0,9.24v139.84c0,5.1,4.14,9.24,9.24,9.24h30.56l70.22,25.85c1.05.39,2.13.57,3.19.57,3.76,0,7.3-2.31,8.67-6.05l48.31-131.23c1.76-4.79-.69-10.1-5.48-11.86ZM89.59,37.72c1.51,3.04,2.6,6.22,3.37,9.53.79,3.41,2.97,5.67,5.97,7.25.14.07.31.09.42.19.19.16.49.39.47.56-.02.22-.27.51-.49.6-1.39.57-2.55,1.47-3.61,2.51-1.29,1.26-2.22,2.74-2.67,4.5-.02.09-.06.17-.13.34-.31-1.39-.56-2.69-.88-3.98-1.38-5.56-3.59-10.75-7.24-15.23-5.61-6.87-12.85-10.7-21.7-11.51-.23-.02-.53-.19-.66-.38-.32-.48-.56-1-.83-1.51.04-.08.07-.17.11-.25,1.62,0,3.25-.04,4.87,0,5.04.15,9.96.92,14.72,2.64,2.68.97,5.21,2.22,7.53,3.87.3.21.57.53.73.86ZM79.92,65.52c-.11-2.2-.46-4.4-.73-6.59-.04-.36,0-.61.3-.79,1.08-.65,2.15-1.29,3.24-1.92.32-.18.68-.28,1-.47.54-.33.55-.62.02-.94-.33-.2-.69-.34-1.05-.49-1.42-.58-2.7-1.36-3.78-2.45-.61-.62-1.05-1.33-1.24-2.2-1.37-6.23-4.75-11.1-10.01-14.68-.06-.04-.12-.09-.15-.22.3.08.61.15.91.24,7.7,2.23,13.34,7.01,17.21,13.96,2.71,4.86,4.24,10.11,5,15.6.2,1.46.29,2.93.4,4.4.02.3-.02.63-.13.91-2.88,7.2-7.36,13.18-13.61,17.81-.12.09-.25.16-.46.3.06-.24.09-.38.13-.52,2.27-7.13,3.31-14.44,2.95-21.92ZM58.02,15.57c4.77.46,9.29,1.73,13.57,3.84,6.3,3.1,13.1,9.26,15.66,14.23-3.81-2.29-7.84-3.5-12.06-4.15-4.47-.7-8.97-.72-13.47-.32-.33.03-.57.08-.71-.35-1.29-4.24-2.22-8.56-3.01-12.91-.01-.07,0-.15,0-.32ZM52.79,19.69c.34-3.07.56-6.14.83-9.22.02-.2.09-.4.28-.62.06.2.15.4.17.61.43,4.62.83,9.24,1.29,13.85.56,5.54,1.14,11.08,2.7,16.46.4,1.39.91,2.77,1.49,4.1,2.38,5.45,6.57,8.65,12.38,9.77.61.12,1.22.21,1.83.33.2.04.38.13.57.2,0,.07.01.15.02.22-.37.09-.73.19-1.1.27-1.31.27-2.66.41-3.92.83-8.36,2.85-13.17,8.74-14.69,17.39-.12.69-.26,1.37-.41,2.05-.05.23-.2.43-.3.65-.06,0-.12,0-.17.01-.12-.31-.29-.61-.36-.93-.25-1.23-.43-2.49-.71-3.71-2.02-8.79-9.28-15.27-18.23-16.3-.38-.04-.75-.17-1.12-.26,0-.08,0-.17.01-.25.36-.09.72-.21,1.08-.27,2.59-.4,5.08-1.11,7.34-2.48,2.8-1.69,4.76-4.12,6.16-7.04,1.57-3.27,2.49-6.74,2.99-10.3.72-5.11,1.3-10.24,1.87-15.36ZM49.64,16.09c-.84,4.46-1.76,8.91-3.16,13.23-.27.84-.63,1.67-1.04,2.46-.17.33-.52.65-.87.79-5.01,2.06-8.96,5.36-11.77,10-.05.08-.11.16-.17.24,0,.01-.04,0-.14.03,1.95-11.45,6.9-20.96,17.15-27.32,0,.3.02.44,0,.58ZM15.14,45.71c3.59-12.76,11.13-22.15,23.47-27.4,1.81-.77,3.73-1.29,5.59-1.93.02.05.05.11.07.16-.88.79-1.78,1.54-2.63,2.37-4.46,4.36-7.24,9.69-9.01,15.6-1.19,4-1.81,8.1-2.22,12.23-.07.75-.17,1.5-.25,2.26-.12,1.03-.62,1.87-1.31,2.6-1.16,1.23-2.52,2.18-4.1,2.8-.25.1-.5.21-.73.35-.6.36-.61.66-.02,1.01.32.19.66.32,1,.46,1.42.58,2.7,1.36,3.78,2.45.63.63,1.06,1.37,1.25,2.26,1.13,5.19,3.74,9.49,7.75,12.94.07.06.14.12.17.26-.13-.05-.27-.1-.39-.16-11.78-5.64-19.03-14.98-22.41-27.47-.07-.25-.1-.55-.03-.79ZM15.46,66c-.29-.9-.51-1.83-.73-2.75-.81-3.4-3-5.66-6.01-7.23-.17-.09-.38-.12-.52-.25-.16-.14-.34-.34-.35-.53-.01-.15.17-.41.33-.48,2.31-.95,4.02-2.59,5.43-4.6,0-.01.03,0,.09-.01,5.29,13.83,14.9,23.06,29.21,27.29-.48-.04-.96-.07-1.44-.11-.5-.05-1.01-.09-1.5-.16-8.87-1.25-16.82-4.64-23.84-10.21-.29-.23-.54-.61-.66-.97ZM50.93,95.07c-6.82-.46-13.13-2.49-18.85-6.25-6.8-4.47-11.68-10.55-14.9-17.99-.05-.12-.09-.25-.18-.52.25.16.39.24.51.33,6.27,4.36,13.25,6.91,20.78,7.99,3.39.49,6.8.66,10.22.49,1.4-.07,2.09.32,2.56,1.62.67,1.88,1.22,3.8,1.83,5.71.18.57.36,1.15.56,1.71.07.21.21.39.4.74.24-.47.45-.79.57-1.13.67-1.92,1.32-3.85,1.98-5.78.22-.62.47-1.23.69-1.85.17-.48.48-.71,1.01-.82,4.44-.9,8.44-2.74,11.89-5.69,3.93-3.36,6.5-7.56,7.63-12.63.07-.33.18-.66.28-.98.05,0,.1.01.16.02.06.95.14,1.9.17,2.86.25,8.39-.93,16.53-4.24,24.29-.44,1.03-.93,2.05-1.46,3.04-.18.33-.5.65-.84.81-6.55,3.26-13.5,4.51-20.78,4.03ZM165.64,45.78l-48.31,131.23c-.63,1.72-2.29,2.88-4.12,2.88-.51,0-1.02-.09-1.52-.27l-57.85-21.3h44.73c5.1,0,9.24-4.14,9.24-9.24V19.82l55.22,20.33c2.27.84,3.44,3.36,2.6,5.64Z"/>
  </g>
</svg>