<?xml version="1.0" encoding="UTF-8"?>
<svg id="Calque_2" data-name="Calque 2" xmlns="http://www.w3.org/2000/svg" viewBox="0 0 279.09 197.38">
  <defs>
    <style>
      .cls-1 {
        fill: #fae9cc;
      }
    </style>
  </defs>
  <g id="Content">
    <g>
      <path class="cls-1" d="M266.62,123.23h-36.23v-14.32c0-6.54-5.32-11.87-11.86-11.87h-74.42v-12.33h-9.1v12.33H60.57c-6.54,0-11.86,5.32-11.86,11.87v14.32H12.47c-6.89,0-12.47,5.58-12.47,12.47v49.21c0,6.89,5.58,12.47,12.47,12.47h81.57c6.89,0,12.47-5.58,12.47-12.47v-49.21c0-6.89-5.58-12.47-12.47-12.47h-36.23v-14.32c0-1.52,1.24-2.77,2.76-2.77h157.95c1.52,0,2.76,1.24,2.76,2.77v14.32h-36.23c-6.89,0-12.47,5.58-12.47,12.47v49.21c0,6.89,5.58,12.47,12.47,12.47h81.57c6.89,0,12.47-5.58,12.47-12.47v-49.21c0-6.89-5.58-12.47-12.47-12.47Z"/>
      <path class="cls-1" d="M117.91,53.62l-6.6,28.36c-.44,1.91,1.63,3.42,3.31,2.4l24.93-15.04,24.93,15.04c1.68,1.01,3.75-.49,3.31-2.4l-6.6-28.36,22.01-19.06c1.48-1.29.69-3.72-1.26-3.89l-29.01-2.48-11.33-26.82c-.76-1.81-3.33-1.81-4.09,0l-11.33,26.82-29.01,2.48c-1.96.17-2.75,2.61-1.26,3.89l22.01,19.06Z"/>
    </g>
  </g>
</svg>