<?xml version="1.0" encoding="UTF-8"?>
<svg id="Calque_2" data-name="Calque 2" xmlns="http://www.w3.org/2000/svg" viewBox="0 0 206.35 198.85">
  <defs>
    <style>
      .cls-1 {
        fill: #fae9cc;
      }
    </style>
  </defs>
  <g id="Content">
    <g>
      <polygon class="cls-1" points="56.27 97.28 56.27 97.28 77.4 85.09 56.27 97.28"/>
      <polygon class="cls-1" points="56.27 121.68 66.84 127.77 56.27 121.68 56.27 121.68"/>
      <polygon class="cls-1" points="98.52 121.68 98.52 121.68 87.96 127.77 98.52 121.68"/>
      <polygon class="cls-1" points="82.6 88.09 82.6 88.09 77.4 85.09 82.6 88.09"/>
      <polygon class="cls-1" points="143.54 121.68 143.54 147.67 121.03 160.66 99.91 172.86 77.4 185.86 54.89 172.86 33.76 160.66 11.25 147.67 11.25 121.68 11.25 97.28 11.25 71.29 33.76 58.29 54.89 46.1 77.4 33.1 99.91 46.1 104.13 48.53 109.51 38.64 105.54 36.35 77.4 20.11 49.26 36.35 28.14 48.55 0 64.79 0 97.28 0 121.68 0 154.17 28.14 170.41 49.26 182.61 77.4 198.85 105.54 182.61 126.66 170.41 154.8 154.17 154.8 121.68 154.8 107.06 143.54 108.8 143.54 121.68"/>
      <polygon class="cls-1" points="77.4 46.1 60.52 55.84 39.39 68.04 22.51 77.79 22.51 97.28 22.51 121.68 22.51 141.17 39.39 150.92 60.52 163.11 77.4 172.86 94.28 163.11 115.41 150.92 132.29 141.17 132.29 121.68 132.29 110.54 121.03 112.28 121.03 121.68 121.03 134.67 109.78 141.17 88.65 153.37 77.4 159.86 66.14 153.37 45.02 141.17 33.76 134.67 33.76 121.68 33.76 97.28 33.76 84.29 45.02 77.79 66.14 65.59 77.4 59.09 88.65 65.59 93.36 68.31 98.74 58.42 94.28 55.84 77.4 46.1"/>
      <polygon class="cls-1" points="77.4 72.09 71.77 75.34 50.65 87.54 45.02 90.78 45.02 97.28 45.02 121.68 45.02 128.17 50.65 131.42 71.77 143.62 77.4 146.87 83.03 143.62 104.15 131.42 109.78 128.17 109.78 121.68 109.78 114.02 98.52 115.76 98.52 121.68 98.52 121.68 87.96 127.77 77.4 133.87 66.84 127.77 56.27 121.68 56.27 121.68 56.27 97.28 56.27 97.28 77.4 85.09 82.6 88.09 87.98 78.2 83.03 75.34 77.4 72.09"/>
      <polygon class="cls-1" points="151.59 57.26 143.35 0 85.45 106.39 206.35 87.71 151.59 57.26"/>
    </g>
  </g>
</svg>