<?xml version="1.0" encoding="UTF-8"?>
<svg id="Calque_2" xmlns="http://www.w3.org/2000/svg" version="1.1" viewBox="0 0 154.7 158.7">
  <!-- Generator: Adobe Illustrator 29.3.1, SVG Export Plug-In . SVG Version: 2.1.0 Build 151)  -->
  <defs>
    <style>
      .st0 {
        fill: #f5e9cd;
      }
    </style>
  </defs>
  <g id="Calque_5">
    <path class="st0" d="M145.6,116.5c-.9-1-2.3-1.7-3.5-1.7h-15.4c0,.1,0-87.4,0-87.4,0-10.1-7.4-18.4-16.3-18.4H16.5C7.9,9,1,16.9,1,26.5v11.9c0,3.1,2.3,5.6,5,5.6h16.3v88.1c0,9.8,7.1,17.9,15.8,17.9h93.8c8.4,0,15.2-7.7,15.2-17.1v-12.5c0-1.5-.6-2.9-1.5-4h0ZM10.8,26.6c0-3.5,2.5-6.4,5.7-6.4h80c-.6,1.8-.8,3.7-.8,5.6v7H11v-6.4h-.1ZM32.1,132.2V44.2h68.6c1.4,0,2.6-.6,3.5-1.7s1.5-2.6,1.5-4v-12.7c0-1.4.5-2.8,1.4-3.8s2.2-1.7,3.4-1.7c3.5,0,6.3,3.2,6.3,7.2v105.6c0,2,.3,4.1.9,5.9H38.1c-3.3,0-6-3.1-6-6.8h0ZM137.1,133c0,3.3-2.4,5.9-5.2,5.9s-5.2-2.7-5.2-5.9v-6.6h10.5v6.6h-.1Z"/>
    <path class="st0" d="M95.3,56.3h-52.6c-2.7,0-5,2.6-5,5.6s2.3,5.6,5,5.6h52.7c2.6,0,4.8-2.6,4.8-5.6s-2.2-5.5-4.8-5.6h-.1Z"/>
    <path class="st0" d="M95,79.7h-52.5c-2.7,0-5,2.6-5,5.6s2.3,5.6,5,5.6h52.5c2.7,0,5-2.6,5-5.6s-2.3-5.6-5-5.6Z"/>
    <path class="st0" d="M74,103.2h-31.5c-2.7,0-5,2.6-5,5.6s2.3,5.6,5,5.6h31.5c2.7,0,5-2.6,5-5.6s-2.3-5.6-5-5.6Z"/>
  </g>
</svg>