<?xml version="1.0" encoding="UTF-8"?>
<svg id="Calque_2" xmlns="http://www.w3.org/2000/svg" version="1.1" viewBox="0 0 154.7 158.7">
  <!-- Generator: Adobe Illustrator 29.1.0, SVG Export Plug-In . SVG Version: 2.1.0 Build 142)  -->
  <defs>
    <style>
      .st0 {
        fill: #352611;
      }
    </style>
  </defs>
  <g id="Menu">
    <g>
      <path class="st0" d="M145.5,145.7h-4.8v-2.8h13.1v2.8h-4.8v12.2h-3.5s0-12.2,0-12.2Z"/>
      <path class="st0" d="M10.9,157.7l-2.9-4.2h-3.2v4.2H1.4v-15h6.5c4,0,6.5,2.1,6.5,5.5s-1.1,3.9-3.1,4.7l3.4,4.8h-3.7,0ZM7.7,145.6h-2.8v5.2h2.8c2.1,0,3.2-1,3.2-2.6s-1.1-2.6-3.2-2.6Z"/>
      <path class="st0" d="M138.1,142.7v15h-2.9l-7.5-9.1v9.1h-3.4v-15h2.9l7.5,9.1v-9.1h3.4,0Z"/>
    </g>
  </g>
  <g id="Calque_5">
    <path class="st0" d="M145.8,84.1c-.8-.8-2-1.3-3.1-1.3h-13.6c0,.1,0-68.4,0-68.4C129.1,6.5,122.6,0,114.7,0H31.7c-7.6,0-13.7,6.2-13.7,13.7v9.3c0,2.4,2,4.4,4.4,4.4h14.4v68.9c0,7.7,6.3,14,14,14h82.9c7.4,0,13.4-6,13.4-13.4v-9.8c0-1.2-.5-2.3-1.3-3.1h0ZM26.7,13.8c0-2.7,2.2-5,5-5h70.7c-.5,1.4-.7,2.9-.7,4.4v5.5s-74.9,0-74.9,0v-5h0ZM45.5,96.4V27.5h60.6c1.2,0,2.3-.5,3.1-1.3s1.3-2,1.3-3.1v-9.9c0-1.1.4-2.2,1.2-3s1.9-1.3,3-1.3c3.1,0,5.6,2.5,5.6,5.6v82.6c0,1.6.3,3.2.8,4.6H50.8c-2.9,0-5.3-2.4-5.3-5.3h0ZM138.3,97c0,2.6-2.1,4.6-4.6,4.6s-4.6-2.1-4.6-4.6v-5.2h9.3c0,0,0,5.2,0,5.2h0Z"/>
    <path class="st0" d="M101.3,37h-.1s-46.4,0-46.4,0c-2.4,0-4.4,2-4.4,4.4s2,4.4,4.4,4.4h46.6c2.3,0,4.2-2,4.2-4.4s-1.9-4.3-4.2-4.4h0Z"/>
    <path class="st0" d="M101.1,55.3h-46.4c-2.4,0-4.4,2-4.4,4.4s2,4.4,4.4,4.4h46.4c2.4,0,4.4-2,4.4-4.4s-2-4.4-4.4-4.4Z"/>
    <path class="st0" d="M82.5,73.7h-27.8c-2.4,0-4.4,2-4.4,4.4s2,4.4,4.4,4.4h27.8c2.4,0,4.4-2,4.4-4.4s-2-4.4-4.4-4.4Z"/>
  </g>
  <path class="st0" d="M31.3,155.2v2.8h-11.6v-15h11.3v2.8h-7.9v3.3h7v2.7h-7v3.5h8.2ZM24.7,141.7h2.6s-2.9-3.1-2.9-3.1h-3.6s3.9,3.1,3.9,3.1Z"/>
  <path class="st0" d="M46.5,150.2h3.2v6.1c-1.6,1.2-3.9,1.9-6.1,1.9-4.7,0-8.2-3.2-8.2-7.8s3.5-7.8,8.3-7.8,4.8.9,6.3,2.6l-2.2,2.1c-1.1-1.2-2.4-1.7-3.9-1.7-2.9,0-4.9,1.9-4.9,4.8s2,4.8,4.9,4.8,1.8-.2,2.7-.6v-4.4h0Z"/>
  <path class="st0" d="M55.3,142.9h3.5v12.2h7.5v2.8h-11s0-15,0-15Z"/>
  <path class="st0" d="M84.3,155v2.8h-11.6v-15h11.3v2.8h-7.9v3.3h7v2.7h-7v3.5h8.2Z"/>
  <path class="st0" d="M121,155v2.8h-11.6v-15h11.3v2.8h-7.9v3.3h7v2.7h-7v3.5h8.2Z"/>
  <path class="st0" d="M102.1,157.7v-9s-4.4,7.4-4.4,7.4h-1.6l-4.4-7.2v8.8h-3.3v-15h2.9l5.6,9.3,5.5-9.3h2.9v15s-3.2,0-3.2,0Z"/>
</svg>