<?xml version="1.0" encoding="UTF-8"?>
<svg id="Calque_2" data-name="Calque 2" xmlns="http://www.w3.org/2000/svg" viewBox="0 0 157.77 153.94">
  <defs>
    <style>
      .cls-1 {
        fill: #352611;
      }
    </style>
  </defs>
  <g id="Menu">
    <g>
      <path class="cls-1" d="M0,144.89c0-5.27,4.05-9.05,9.5-9.05,3.02,0,5.55,1.1,7.2,3.1l-2.6,2.4c-1.17-1.35-2.65-2.05-4.4-2.05-3.27,0-5.6,2.3-5.6,5.6s2.32,5.6,5.6,5.6c1.75,0,3.22-.7,4.4-2.07l2.6,2.4c-1.65,2.02-4.17,3.12-7.22,3.12-5.42,0-9.47-3.77-9.47-9.05Z"/>
      <path class="cls-1" d="M19.2,144.89c0-5.2,4.05-9.05,9.57-9.05s9.57,3.82,9.57,9.05-4.07,9.05-9.57,9.05-9.57-3.85-9.57-9.05ZM34.25,144.89c0-3.32-2.35-5.6-5.47-5.6s-5.47,2.27-5.47,5.6,2.35,5.6,5.47,5.6,5.47-2.27,5.47-5.6Z"/>
      <path class="cls-1" d="M58.57,153.64l-.02-10.5-5.15,8.65h-1.82l-5.12-8.42v10.27h-3.8v-17.5h3.35l6.55,10.87,6.45-10.87h3.32l.05,17.5h-3.8Z"/>
      <path class="cls-1" d="M82.95,142.49c0,3.9-2.92,6.32-7.6,6.32h-3.52v4.82h-4.05v-17.5h7.57c4.67,0,7.6,2.42,7.6,6.35ZM78.85,142.49c0-1.92-1.25-3.05-3.72-3.05h-3.3v6.07h3.3c2.47,0,3.72-1.12,3.72-3.02Z"/>
      <path class="cls-1" d="M90.22,139.44h-5.6v-3.3h15.25v3.3h-5.6v14.2h-4.05v-14.2Z"/>
      <path class="cls-1" d="M116.85,150.39v3.25h-13.55v-17.5h13.22v3.25h-9.2v3.8h8.12v3.15h-8.12v4.05h9.52Z"/>
      <path class="cls-1" d="M121.17,145.94v-9.8h4.05v9.65c0,3.32,1.45,4.7,3.9,4.7s3.9-1.37,3.9-4.7v-9.65h4v9.8c0,5.15-2.95,8-7.92,8s-7.92-2.85-7.92-8Z"/>
      <path class="cls-1" d="M153.42,153.64l-3.37-4.87h-3.72v4.87h-4.05v-17.5h7.57c4.67,0,7.6,2.42,7.6,6.35,0,2.62-1.33,4.55-3.6,5.52l3.92,5.62h-4.35ZM149.62,139.44h-3.3v6.1h3.3c2.47,0,3.72-1.15,3.72-3.05s-1.25-3.05-3.72-3.05Z"/>
    </g>
    <path class="cls-1" d="M78.8,0c-14.15,61.05-41.42,72.71-41.42,72.71,39.69,25.53,41.42,41.07,41.42,41.07,0,0,1.73-15.54,41.42-41.07,0,0-27.27-11.66-41.42-72.71ZM78.8,84.37l-13.67-13.88s11.45-11.1,13.67-21.09c2.22,9.99,13.67,21.09,13.67,21.09l-13.67,13.88Z"/>
  </g>
</svg>