<?xml version="1.0" encoding="UTF-8"?>
<svg id="Calque_2" data-name="Calque 2" xmlns="http://www.w3.org/2000/svg" viewBox="0 0 187.87 150.33">
  <defs>
    <style>
      .cls-1 {
        fill: #352611;
      }
    </style>
  </defs>
  <g id="Menu">
    <g>
      <g>
        <path class="cls-1" d="M0,141.29c0-5.27,4.05-9.05,9.5-9.05,3.02,0,5.55,1.1,7.2,3.1l-2.6,2.4c-1.17-1.35-2.65-2.05-4.4-2.05-3.27,0-5.6,2.3-5.6,5.6s2.33,5.6,5.6,5.6c1.75,0,3.22-.7,4.4-2.07l2.6,2.4c-1.65,2.02-4.17,3.12-7.22,3.12-5.42,0-9.47-3.77-9.47-9.05Z"/>
        <path class="cls-1" d="M20.67,132.54h4.05v14.2h8.77v3.3h-12.82v-17.5Z"/>
        <path class="cls-1" d="M48.7,146.28h-8.12l-1.55,3.75h-4.15l7.8-17.5h4l7.82,17.5h-4.25l-1.55-3.75ZM47.42,143.21l-2.77-6.7-2.77,6.7h5.55Z"/>
        <path class="cls-1" d="M56.2,148.31l1.38-3.05c1.47,1.07,3.67,1.82,5.77,1.82,2.4,0,3.37-.8,3.37-1.88,0-3.27-10.17-1.02-10.17-7.52,0-2.97,2.4-5.45,7.37-5.45,2.2,0,4.45.53,6.07,1.55l-1.25,3.07c-1.62-.92-3.3-1.38-4.85-1.38-2.4,0-3.32.9-3.32,2,0,3.22,10.17,1,10.17,7.42,0,2.92-2.42,5.42-7.42,5.42-2.77,0-5.57-.82-7.12-2.02Z"/>
        <path class="cls-1" d="M73.4,148.31l1.38-3.05c1.47,1.07,3.67,1.82,5.77,1.82,2.4,0,3.37-.8,3.37-1.88,0-3.27-10.17-1.02-10.17-7.52,0-2.97,2.4-5.45,7.37-5.45,2.2,0,4.45.53,6.07,1.55l-1.25,3.07c-1.62-.92-3.3-1.38-4.85-1.38-2.4,0-3.32.9-3.32,2,0,3.22,10.17,1,10.17,7.42,0,2.92-2.42,5.42-7.42,5.42-2.77,0-5.57-.82-7.12-2.02Z"/>
        <path class="cls-1" d="M105.52,146.78v3.25h-13.55v-17.5h13.22v3.25h-9.2v3.8h8.12v3.15h-8.12v4.05h9.52Z"/>
        <path class="cls-1" d="M125.92,150.03l-.03-10.5-5.15,8.65h-1.82l-5.12-8.42v10.27h-3.8v-17.5h3.35l6.55,10.87,6.45-10.87h3.32l.05,17.5h-3.8Z"/>
        <path class="cls-1" d="M148.67,146.78v3.25h-13.55v-17.5h13.22v3.25h-9.2v3.8h8.12v3.15h-8.12v4.05h9.52Z"/>
        <path class="cls-1" d="M169.19,132.54v17.5h-3.32l-8.72-10.62v10.62h-4v-17.5h3.35l8.7,10.62v-10.62h4Z"/>
        <path class="cls-1" d="M178.22,135.84h-5.6v-3.3h15.25v3.3h-5.6v14.2h-4.05v-14.2Z"/>
      </g>
      <g>
        <g>
          <path class="cls-1" d="M93.5,26.65c-.73,3.3-4.52,6.97-4.52,6.97l4.52,4.59,4.52-4.59s-3.78-3.67-4.52-6.97Z"/>
          <path class="cls-1" d="M133.32,7.86c-3.56-.03-7.11,0-10.95,0,0-1.02.02-1.79,0-2.55-.03-.77-.09-1.53-.16-2.3-.19-2.44-.8-3-3.31-3-5.1,0-10.2,0-15.31,0-11.85,0-23.7,0-35.55,0-2.24,0-3.02.71-3.16,2.85-.07,1.15-.17,2.31-.1,3.45.08,1.28-.46,1.58-1.63,1.56-3.13-.06-6.25-.04-9.38-.02-2.33.02-3.21.99-2.98,3.25.61,6.1,1.99,12,4.49,17.61,3.34,7.5,8.22,13.56,15.91,17.02.91.41,1.83,1.19,2.34,2.05,3.3,5.5,7.17,10.38,13.17,13.16.33.15.73.61.74.94.14,3.27.24,6.54.28,9.81.01,1.04-.55,1.45-1.68,1.43-3.78-.08-7.57-.05-11.36-.02-1.9.01-2.7.8-2.74,2.71-.05,2.19-.01,4.39-.01,6.58,0,2.35,0,4.69,0,7.21-1.84,0-3.47-.03-5.1,0-1.74.04-2.62.91-2.64,2.66-.04,3.29-.04,6.58,0,9.87.02,1.65.92,2.5,2.56,2.6.16,0,.33,0,.49,0,17.5,0,35,0,52.5,0,2.47,0,3.24-.78,3.26-3.24.02-2.47.02-4.94,0-7.41-.02-4.21-.32-4.5-4.47-4.5-.63,0-1.27,0-2.03,0,0-4.67.01-9.1,0-13.54,0-2.17-.8-2.96-2.99-2.96-3.84-.02-7.68-.07-11.52.03-1.31.04-1.88-.5-1.86-1.63.05-3.27.18-6.54.35-9.81.02-.4.41-.94.78-1.13,5.74-2.98,9.47-7.85,12.61-13.3.3-.53.8-1.08,1.34-1.31,6.87-2.84,11.63-7.9,15.06-14.33,3.43-6.43,5.15-13.37,5.92-20.57.23-2.17-.69-3.17-2.89-3.19ZM56.02,12.66h8.7c.42,9,1.82,17.81,4.88,26.5-6.48-3.07-14.28-18.44-13.58-26.5ZM93.5,47.92s-.57-5.14-13.69-13.57c0,0,9.01-3.85,13.69-24.03,4.68,20.17,13.69,24.03,13.69,24.03-13.11,8.44-13.69,13.57-13.69,13.57ZM117.78,38.98c2.8-8.53,4.21-17.28,4.61-26.32h8.86c-1.75,10.31-4.74,19.75-13.48,26.32Z"/>
        </g>
        <g>
          <path class="cls-1" d="M93.5,26.65c-.73,3.3-4.52,6.97-4.52,6.97l4.52,4.59,4.52-4.59s-3.78-3.67-4.52-6.97Z"/>
          <path class="cls-1" d="M133.32,7.86c-3.56-.03-7.11,0-10.95,0,0-1.02.02-1.79,0-2.55-.03-.77-.09-1.53-.16-2.3-.19-2.44-.8-3-3.31-3-5.1,0-10.2,0-15.31,0-11.85,0-23.7,0-35.55,0-2.24,0-3.02.71-3.16,2.85-.07,1.15-.17,2.31-.1,3.45.08,1.28-.46,1.58-1.63,1.56-3.13-.06-6.25-.04-9.38-.02-2.33.02-3.21.99-2.98,3.25.61,6.1,1.99,12,4.49,17.61,3.34,7.5,8.22,13.56,15.91,17.02.91.41,1.83,1.19,2.34,2.05,3.3,5.5,7.17,10.38,13.17,13.16.33.15.73.61.74.94.14,3.27.24,6.54.28,9.81.01,1.04-.55,1.45-1.68,1.43-3.78-.08-7.57-.05-11.36-.02-1.9.01-2.7.8-2.74,2.71-.05,2.19-.01,4.39-.01,6.58,0,2.35,0,4.69,0,7.21-1.84,0-3.47-.03-5.1,0-1.74.04-2.62.91-2.64,2.66-.04,3.29-.04,6.58,0,9.87.02,1.65.92,2.5,2.56,2.6.16,0,.33,0,.49,0,17.5,0,35,0,52.5,0,2.47,0,3.24-.78,3.26-3.24.02-2.47.02-4.94,0-7.41-.02-4.21-.32-4.5-4.47-4.5-.63,0-1.27,0-2.03,0,0-4.67.01-9.1,0-13.54,0-2.17-.8-2.96-2.99-2.96-3.84-.02-7.68-.07-11.52.03-1.31.04-1.88-.5-1.86-1.63.05-3.27.18-6.54.35-9.81.02-.4.41-.94.78-1.13,5.74-2.98,9.47-7.85,12.61-13.3.3-.53.8-1.08,1.34-1.31,6.87-2.84,11.63-7.9,15.06-14.33,3.43-6.43,5.15-13.37,5.92-20.57.23-2.17-.69-3.17-2.89-3.19ZM56.02,12.66h8.7c.42,9,1.82,17.81,4.88,26.5-6.48-3.07-14.28-18.44-13.58-26.5ZM93.5,47.92s-.57-5.14-13.69-13.57c0,0,9.01-3.85,13.69-24.03,4.68,20.17,13.69,24.03,13.69,24.03-13.11,8.44-13.69,13.57-13.69,13.57ZM117.78,38.98c2.8-8.53,4.21-17.28,4.61-26.32h8.86c-1.75,10.31-4.74,19.75-13.48,26.32Z"/>
        </g>
      </g>
    </g>
  </g>
</svg>