<?xml version="1.0" encoding="UTF-8"?>
<svg id="Calque_2" data-name="Calque 2" xmlns="http://www.w3.org/2000/svg" viewBox="0 0 154.7 158.7">
  <defs>
    <style>
      .cls-1 {
        fill: #352611;
      }
    </style>
  </defs>
  <g id="Menu">
    <g>
      <path class="cls-1" d="M147.79,68.31h-20.09v-7.94c0-3.63-2.95-6.58-6.58-6.58h-41.25v-6.84h-5.04v6.84h-41.25c-3.63,0-6.58,2.95-6.58,6.58v7.94H6.91c-3.82,0-6.91,3.1-6.91,6.91v27.28c0,3.82,3.1,6.91,6.91,6.91h45.21c3.82,0,6.91-3.1,6.91-6.91v-27.28c0-3.82-3.1-6.91-6.91-6.91h-20.09v-7.94c0-.84.69-1.53,1.53-1.53h87.55c.84,0,1.53.69,1.53,1.53v7.94h-20.09c-3.82,0-6.91,3.1-6.91,6.91v27.28c0,3.82,3.1,6.91,6.91,6.91h45.21c3.82,0,6.91-3.1,6.91-6.91v-27.28c0-3.82-3.1-6.91-6.91-6.91Z"/>
      <path class="cls-1" d="M65.36,29.72l-3.66,15.72c-.25,1.06.9,1.89,1.83,1.33l13.82-8.34,13.82,8.34c.93.56,2.08-.27,1.83-1.33l-3.66-15.72,12.2-10.57c.82-.71.38-2.06-.7-2.16l-16.08-1.38-6.28-14.87c-.42-1-1.84-1-2.27,0l-6.28,14.87-16.08,1.38c-1.08.09-1.52,1.44-.7,2.16l12.2,10.57Z"/>
    </g>
    <g>
      <path class="cls-1" d="M8.76,144.21H3.16v-3.3h15.25v3.3h-5.6v14.2h-4.05v-14.2Z"/>
      <path class="cls-1" d="M20.49,149.65c0-5.2,4.05-9.05,9.57-9.05s9.57,3.82,9.57,9.05-4.07,9.05-9.57,9.05-9.57-3.85-9.57-9.05ZM35.54,149.65c0-3.32-2.35-5.6-5.47-5.6s-5.47,2.27-5.47,5.6,2.35,5.6,5.47,5.6,5.47-2.27,5.47-5.6Z"/>
      <path class="cls-1" d="M43.79,150.7v-9.8h4.05v9.65c0,3.32,1.45,4.7,3.9,4.7s3.9-1.37,3.9-4.7v-9.65h4v9.8c0,5.15-2.95,8-7.92,8s-7.92-2.85-7.92-8Z"/>
      <path class="cls-1" d="M76.04,158.4l-3.37-4.87h-3.72v4.87h-4.05v-17.5h7.57c4.67,0,7.6,2.42,7.6,6.35,0,2.62-1.32,4.55-3.6,5.52l3.92,5.62h-4.35ZM72.24,144.21h-3.3v6.1h3.3c2.47,0,3.72-1.15,3.72-3.05s-1.25-3.05-3.72-3.05Z"/>
      <path class="cls-1" d="M100.56,140.91v17.5h-3.32l-8.72-10.62v10.62h-4v-17.5h3.35l8.7,10.62v-10.62h4Z"/>
      <path class="cls-1" d="M104.86,149.65c0-5.2,4.05-9.05,9.57-9.05s9.57,3.82,9.57,9.05-4.07,9.05-9.57,9.05-9.57-3.85-9.57-9.05ZM119.91,149.65c0-3.32-2.35-5.6-5.47-5.6s-5.47,2.27-5.47,5.6,2.35,5.6,5.47,5.6,5.47-2.27,5.47-5.6Z"/>
      <path class="cls-1" d="M128.31,140.91h4.05v17.5h-4.05v-17.5Z"/>
      <path class="cls-1" d="M136.39,156.68l1.38-3.05c1.47,1.07,3.67,1.82,5.77,1.82,2.4,0,3.37-.8,3.37-1.88,0-3.27-10.17-1.02-10.17-7.52,0-2.97,2.4-5.45,7.37-5.45,2.2,0,4.45.53,6.07,1.55l-1.25,3.07c-1.62-.92-3.3-1.38-4.85-1.38-2.4,0-3.32.9-3.32,2,0,3.22,10.17,1,10.17,7.42,0,2.92-2.42,5.42-7.42,5.42-2.77,0-5.57-.82-7.12-2.02Z"/>
    </g>
  </g>
</svg>