<?xml version="1.0" encoding="UTF-8"?>
<svg id="Calque_2" data-name="Calque 2" xmlns="http://www.w3.org/2000/svg" viewBox="0 0 123.96 162.14">
  <defs>
    <style>
      .cls-1 {
        fill: #352611;
      }
    </style>
  </defs>
  <g id="Menu">
    <g>
      <g>
        <path class="cls-1" d="M7.3,144.34h7.95c5.72,0,9.65,3.45,9.65,8.75s-3.92,8.75-9.65,8.75h-7.95v-17.5ZM15.05,158.52c3.47,0,5.75-2.07,5.75-5.42s-2.27-5.42-5.75-5.42h-3.7v10.85h3.7Z"/>
        <path class="cls-1" d="M42.74,158.59v3.25h-13.55v-17.5h13.22v3.25h-9.2v3.8h8.12v3.15h-8.12v4.05h9.52ZM36.6,142.92h-3.05l3.37-3.6h4.2l-4.52,3.6Z"/>
        <path class="cls-1" d="M51.27,147.59v4.62h8.1v3.25h-8.1v6.37h-4.05v-17.5h13.22v3.25h-9.17Z"/>
        <path class="cls-1" d="M64.45,144.34h4.05v17.5h-4.05v-17.5Z"/>
        <path class="cls-1" d="M72.52,160.11l1.38-3.05c1.47,1.07,3.67,1.82,5.77,1.82,2.4,0,3.37-.8,3.37-1.88,0-3.27-10.17-1.02-10.17-7.52,0-2.97,2.4-5.45,7.37-5.45,2.2,0,4.45.53,6.07,1.55l-1.25,3.07c-1.62-.92-3.3-1.38-4.85-1.38-2.4,0-3.32.9-3.32,2,0,3.22,10.17,1,10.17,7.42,0,2.92-2.42,5.42-7.42,5.42-2.77,0-5.57-.82-7.12-2.02Z"/>
      </g>
      <g>
        <g>
          <polygon class="cls-1" points="33.81 58.44 33.81 58.44 46.5 51.11 33.81 58.44"/>
          <polygon class="cls-1" points="33.81 73.1 40.15 76.76 33.81 73.1 33.81 73.1"/>
          <polygon class="cls-1" points="59.19 73.1 59.19 73.1 52.84 76.76 59.19 73.1"/>
          <polygon class="cls-1" points="49.62 52.92 49.62 52.92 46.5 51.11 49.62 52.92"/>
          <polygon class="cls-1" points="86.23 73.1 86.23 88.71 72.71 96.52 60.02 103.85 46.5 111.65 32.97 103.85 20.28 96.52 6.76 88.71 6.76 73.1 6.76 58.44 6.76 42.83 20.28 35.02 32.97 27.69 46.5 19.89 60.02 27.69 62.55 29.16 65.79 23.21 63.4 21.84 46.5 12.08 29.59 21.84 16.9 29.17 0 38.92 0 58.44 0 73.1 0 92.61 16.9 102.37 29.59 109.7 46.5 119.46 63.4 109.7 76.09 102.37 93 92.61 93 73.1 93 64.32 86.23 65.36 86.23 73.1"/>
          <polygon class="cls-1" points="46.5 27.69 36.36 33.55 23.66 40.88 13.52 46.73 13.52 58.44 13.52 73.1 13.52 84.81 23.66 90.66 36.36 97.99 46.5 103.85 56.64 97.99 69.33 90.66 79.47 84.81 79.47 73.1 79.47 66.41 72.71 67.45 72.71 73.1 72.71 80.9 65.95 84.81 53.26 92.13 46.5 96.04 39.74 92.13 27.05 84.81 20.28 80.9 20.28 73.1 20.28 58.44 20.28 50.63 27.05 46.73 39.74 39.4 46.5 35.5 53.26 39.4 56.09 41.04 59.32 35.1 56.64 33.55 46.5 27.69"/>
          <polygon class="cls-1" points="46.5 43.31 43.12 45.26 30.43 52.59 27.05 54.54 27.05 58.44 27.05 73.1 27.05 77 30.43 78.95 43.12 86.28 46.5 88.23 49.88 86.28 62.57 78.95 65.95 77 65.95 73.1 65.95 68.5 59.19 69.54 59.19 73.1 59.19 73.1 52.84 76.76 46.5 80.42 40.15 76.76 33.81 73.1 33.81 73.1 33.81 58.44 33.81 58.44 46.5 51.11 49.62 52.92 52.85 46.98 49.88 45.26 46.5 43.31"/>
          <polygon class="cls-1" points="91.07 34.4 86.12 0 51.33 63.91 123.96 52.69 91.07 34.4"/>
        </g>
        <g>
          <polygon class="cls-1" points="33.81 58.44 33.81 58.44 46.5 51.11 33.81 58.44"/>
          <polygon class="cls-1" points="33.81 73.1 40.15 76.76 33.81 73.1 33.81 73.1"/>
          <polygon class="cls-1" points="59.19 73.1 59.19 73.1 52.84 76.76 59.19 73.1"/>
          <polygon class="cls-1" points="49.62 52.92 49.62 52.92 46.5 51.11 49.62 52.92"/>
          <polygon class="cls-1" points="86.23 73.1 86.23 88.71 72.71 96.52 60.02 103.85 46.5 111.65 32.97 103.85 20.28 96.52 6.76 88.71 6.76 73.1 6.76 58.44 6.76 42.83 20.28 35.02 32.97 27.69 46.5 19.89 60.02 27.69 62.55 29.16 65.79 23.21 63.4 21.84 46.5 12.08 29.59 21.84 16.9 29.17 0 38.92 0 58.44 0 73.1 0 92.61 16.9 102.37 29.59 109.7 46.5 119.46 63.4 109.7 76.09 102.37 93 92.61 93 73.1 93 64.32 86.23 65.36 86.23 73.1"/>
          <polygon class="cls-1" points="46.5 27.69 36.36 33.55 23.66 40.88 13.52 46.73 13.52 58.44 13.52 73.1 13.52 84.81 23.66 90.66 36.36 97.99 46.5 103.85 56.64 97.99 69.33 90.66 79.47 84.81 79.47 73.1 79.47 66.41 72.71 67.45 72.71 73.1 72.71 80.9 65.95 84.81 53.26 92.13 46.5 96.04 39.74 92.13 27.05 84.81 20.28 80.9 20.28 73.1 20.28 58.44 20.28 50.63 27.05 46.73 39.74 39.4 46.5 35.5 53.26 39.4 56.09 41.04 59.32 35.1 56.64 33.55 46.5 27.69"/>
          <polygon class="cls-1" points="46.5 43.31 43.12 45.26 30.43 52.59 27.05 54.54 27.05 58.44 27.05 73.1 27.05 77 30.43 78.95 43.12 86.28 46.5 88.23 49.88 86.28 62.57 78.95 65.95 77 65.95 73.1 65.95 68.5 59.19 69.54 59.19 73.1 59.19 73.1 52.84 76.76 46.5 80.42 40.15 76.76 33.81 73.1 33.81 73.1 33.81 58.44 33.81 58.44 46.5 51.11 49.62 52.92 52.85 46.98 49.88 45.26 46.5 43.31"/>
          <polygon class="cls-1" points="91.07 34.4 86.12 0 51.33 63.91 123.96 52.69 91.07 34.4"/>
        </g>
      </g>
    </g>
  </g>
</svg>