<?xml version="1.0" encoding="UTF-8"?>
<svg id="Calque_2" data-name="Calque 2" xmlns="http://www.w3.org/2000/svg" viewBox="0 0 169.5 154.24">
  <defs>
    <style>
      .cls-1 {
        fill: #352611;
      }
    </style>
  </defs>
  <g id="Menu">
    <path class="cls-1" d="M144.09,22.3l-35.64-13.12v-3.39c0-3.2-2.59-5.79-5.79-5.79h-55.95c-3.2,0-5.79,2.59-5.79,5.79v87.59c0,3.2,2.59,5.79,5.79,5.79h19.14l43.98,16.19c.66.24,1.33.36,2,.36,2.36,0,4.57-1.45,5.43-3.79l30.26-82.2c1.1-3-.43-6.33-3.43-7.43ZM97.04,23.62c.95,1.9,1.63,3.9,2.11,5.97.49,2.13,1.86,3.55,3.74,4.54.09.05.19.06.26.12.12.1.31.24.3.35-.01.14-.17.32-.31.38-.87.36-1.59.92-2.26,1.57-.81.79-1.39,1.71-1.67,2.82-.01.06-.04.11-.08.21-.19-.87-.35-1.69-.55-2.49-.87-3.48-2.25-6.74-4.53-9.54-3.51-4.3-8.05-6.7-13.59-7.21-.15-.01-.33-.12-.41-.24-.2-.3-.35-.63-.52-.95.02-.05.04-.1.07-.16,1.02,0,2.04-.02,3.05,0,3.15.09,6.24.58,9.22,1.65,1.68.61,3.26,1.39,4.72,2.43.19.13.35.33.46.54ZM90.98,41.04c-.07-1.38-.29-2.75-.46-4.13-.03-.22,0-.38.19-.5.67-.4,1.35-.81,2.03-1.2.2-.12.43-.18.62-.29.34-.21.34-.39.01-.59-.21-.13-.43-.22-.66-.31-.89-.36-1.69-.85-2.37-1.54-.38-.39-.66-.84-.77-1.38-.86-3.9-2.98-6.95-6.27-9.2-.04-.03-.07-.06-.09-.13.19.05.38.09.57.15,4.82,1.4,8.36,4.39,10.78,8.74,1.7,3.05,2.66,6.33,3.13,9.77.13.91.18,1.84.25,2.76.01.19-.01.39-.08.57-1.81,4.51-4.61,8.26-8.52,11.15-.08.06-.16.1-.29.19.04-.15.05-.24.08-.33,1.42-4.47,2.07-9.05,1.85-13.73ZM77.27,9.75c2.99.29,5.82,1.08,8.5,2.4,3.94,1.94,8.21,5.8,9.81,8.91-2.39-1.43-4.91-2.19-7.55-2.6-2.8-.44-5.62-.45-8.44-.2-.2.02-.36.05-.44-.22-.81-2.66-1.39-5.36-1.88-8.09,0-.05,0-.1,0-.2ZM73.99,12.34c.21-1.92.35-3.85.52-5.77.01-.13.05-.25.17-.39.04.13.09.25.1.38.27,2.89.52,5.79.81,8.68.35,3.47.71,6.94,1.69,10.31.25.87.57,1.73.93,2.57,1.49,3.42,4.11,5.42,7.76,6.12.38.07.77.13,1.15.21.12.02.24.08.36.13,0,.05,0,.09.01.14-.23.06-.46.12-.69.17-.82.17-1.67.25-2.45.52-5.24,1.78-8.25,5.48-9.2,10.89-.08.43-.16.86-.26,1.29-.03.14-.12.27-.19.41-.04,0-.07,0-.11,0-.08-.19-.18-.38-.23-.58-.16-.77-.27-1.56-.44-2.33-1.26-5.51-5.81-9.56-11.42-10.21-.24-.03-.47-.11-.7-.16,0-.05,0-.11,0-.16.23-.06.45-.13.68-.17,1.62-.25,3.18-.7,4.6-1.55,1.76-1.06,2.98-2.58,3.86-4.41.98-2.05,1.56-4.22,1.87-6.45.45-3.2.81-6.41,1.17-9.62ZM72.02,10.08c-.52,2.8-1.1,5.58-1.98,8.29-.17.53-.4,1.05-.65,1.54-.11.21-.33.41-.54.49-3.14,1.29-5.61,3.36-7.37,6.26-.03.05-.07.1-.1.15,0,0-.02,0-.09.02,1.22-7.17,4.32-13.13,10.74-17.11,0,.19.01.28,0,.36ZM50.41,28.63c2.25-7.99,6.97-13.87,14.7-17.16,1.13-.48,2.33-.81,3.5-1.21.02.03.03.07.05.1-.55.49-1.12.97-1.64,1.48-2.79,2.73-4.54,6.07-5.64,9.77-.75,2.5-1.13,5.07-1.39,7.66-.05.47-.1.94-.16,1.41-.07.64-.39,1.17-.82,1.63-.73.77-1.58,1.36-2.57,1.75-.16.06-.31.13-.46.22-.37.22-.38.41-.01.63.2.12.42.2.63.29.89.36,1.69.85,2.37,1.54.39.4.66.86.78,1.41.71,3.25,2.34,5.94,4.85,8.11.04.04.09.08.11.16-.08-.03-.17-.06-.25-.1-7.38-3.53-11.92-9.38-14.04-17.21-.04-.16-.06-.34-.02-.5ZM50.61,41.34c-.18-.57-.32-1.15-.46-1.73-.51-2.13-1.88-3.54-3.76-4.53-.11-.06-.24-.08-.33-.15-.1-.09-.21-.21-.22-.33,0-.1.11-.26.2-.3,1.45-.59,2.52-1.62,3.4-2.88,0,0,.02,0,.05,0,3.31,8.66,9.33,14.44,18.3,17.1-.3-.02-.6-.04-.9-.07-.31-.03-.63-.05-.94-.1-5.55-.78-10.54-2.91-14.93-6.4-.18-.15-.34-.38-.41-.61ZM72.83,59.55c-4.27-.29-8.22-1.56-11.81-3.91-4.26-2.8-7.31-6.61-9.33-11.27-.03-.08-.06-.16-.12-.33.16.1.24.15.32.21,3.93,2.73,8.3,4.33,13.02,5.01,2.12.31,4.26.41,6.4.31.88-.04,1.31.2,1.6,1.01.42,1.18.77,2.38,1.14,3.57.11.36.23.72.35,1.07.05.13.13.25.25.46.15-.29.28-.49.36-.71.42-1.2.83-2.41,1.24-3.62.13-.39.3-.77.43-1.16.11-.3.3-.45.63-.51,2.78-.56,5.29-1.72,7.45-3.57,2.46-2.11,4.07-4.74,4.78-7.91.05-.21.11-.41.17-.62.03,0,.07,0,.1,0,.04.6.09,1.19.11,1.79.16,5.25-.59,10.35-2.66,15.22-.28.65-.58,1.29-.91,1.91-.11.21-.31.41-.52.51-4.1,2.04-8.46,2.83-13.02,2.52ZM144.67,28.68l-30.26,82.2c-.4,1.08-1.43,1.8-2.58,1.8-.32,0-.64-.06-.95-.17l-36.23-13.34h28.02c3.2,0,5.79-2.59,5.79-5.79V12.41l34.59,12.73c1.42.52,2.15,2.11,1.63,3.53Z"/>
    <g>
      <path class="cls-1" d="M0,145.19c0-5.27,4.05-9.05,9.5-9.05,3.02,0,5.55,1.1,7.2,3.1l-2.6,2.4c-1.17-1.35-2.65-2.05-4.4-2.05-3.27,0-5.6,2.3-5.6,5.6s2.32,5.6,5.6,5.6c1.75,0,3.22-.7,4.4-2.07l2.6,2.4c-1.65,2.02-4.17,3.12-7.22,3.12-5.42,0-9.47-3.77-9.47-9.05Z"/>
      <path class="cls-1" d="M31.85,150.19h-8.12l-1.55,3.75h-4.15l7.8-17.5h4l7.82,17.5h-4.25l-1.55-3.75ZM30.57,147.11l-2.77-6.7-2.77,6.7h5.55Z"/>
      <path class="cls-1" d="M43.47,139.74h-5.6v-3.3h15.25v3.3h-5.6v14.2h-4.05v-14.2Z"/>
      <path class="cls-1" d="M67.2,150.19h-8.12l-1.55,3.75h-4.15l7.8-17.5h4l7.82,17.5h-4.25l-1.55-3.75ZM65.92,147.11l-2.77-6.7-2.77,6.7h5.55Z"/>
      <path class="cls-1" d="M76.08,136.44h4.05v14.2h8.77v3.3h-12.82v-17.5Z"/>
      <path class="cls-1" d="M91.02,145.19c0-5.2,4.05-9.05,9.57-9.05s9.57,3.82,9.57,9.05-4.07,9.05-9.57,9.05-9.57-3.85-9.57-9.05ZM106.07,145.19c0-3.32-2.35-5.6-5.47-5.6s-5.47,2.27-5.47,5.6,2.35,5.6,5.47,5.6,5.47-2.27,5.47-5.6Z"/>
      <path class="cls-1" d="M126.3,144.91h3.7v7.1c-1.92,1.45-4.57,2.22-7.07,2.22-5.5,0-9.55-3.77-9.55-9.05s4.05-9.05,9.62-9.05c3.07,0,5.62,1.05,7.32,3.02l-2.6,2.4c-1.27-1.35-2.75-1.97-4.52-1.97-3.4,0-5.72,2.27-5.72,5.6s2.32,5.6,5.67,5.6c1.1,0,2.12-.2,3.15-.75v-5.12Z"/>
      <path class="cls-1" d="M134.85,146.24v-9.8h4.05v9.65c0,3.32,1.45,4.7,3.9,4.7s3.9-1.37,3.9-4.7v-9.65h4v9.8c0,5.15-2.95,8-7.92,8s-7.92-2.85-7.92-8Z"/>
      <path class="cls-1" d="M169.5,150.69v3.25h-13.55v-17.5h13.22v3.25h-9.2v3.8h8.12v3.15h-8.12v4.05h9.52Z"/>
    </g>
  </g>
</svg>