<?xml version="1.0" encoding="UTF-8"?>
<svg id="Calque_2" data-name="Calque 2" xmlns="http://www.w3.org/2000/svg" xmlns:xlink="http://www.w3.org/1999/xlink" viewBox="0 0 111.26 111.26">
  <defs>
    <style>
      .cls-1 {
        fill: url(#Dégradé_sans_nom_41-7);
      }

      .cls-2 {
        fill: url(#Dégradé_sans_nom_3-6);
      }

      .cls-3 {
        fill: url(#Dégradé_sans_nom_41-2);
      }

      .cls-4 {
        fill: url(#Dégradé_sans_nom_3-5);
      }

      .cls-5 {
        fill: url(#Dégradé_sans_nom_41-6);
      }

      .cls-6 {
        fill: none;
      }

      .cls-7 {
        fill: url(#Dégradé_sans_nom_2);
      }

      .cls-8 {
        fill: url(#Dégradé_sans_nom_41-8);
      }

      .cls-9 {
        fill: url(#Dégradé_sans_nom_41-3);
      }

      .cls-10 {
        fill: url(#Dégradé_sans_nom_3-3);
      }

      .cls-11 {
        fill: url(#Dégradé_sans_nom_41);
      }

      .cls-12 {
        fill: url(#Dégradé_sans_nom_3-4);
      }

      .cls-13 {
        fill: url(#Dégradé_sans_nom_3-2);
      }

      .cls-14 {
        fill: url(#Dégradé_sans_nom_3-7);
      }

      .cls-15 {
        fill: url(#Dégradé_sans_nom_41-4);
      }

      .cls-16 {
        fill: url(#Dégradé_sans_nom_3);
      }

      .cls-17 {
        fill: url(#Dégradé_sans_nom_41-5);
      }

      .cls-18 {
        fill: url(#Dégradé_sans_nom_47);
        stroke: #b69b63;
        stroke-miterlimit: 10;
        stroke-width: 2.32px;
      }
    </style>
    <linearGradient id="Dégradé_sans_nom_47" data-name="Dégradé sans nom 47" x1="464.47" y1="308.6" x2="573.41" y2="308.6" gradientTransform="translate(-463.31 -252.97)" gradientUnits="userSpaceOnUse">
      <stop offset="0" stop-color="#2d2660"/>
      <stop offset="1" stop-color="#3f235d"/>
    </linearGradient>
    <linearGradient id="Dégradé_sans_nom_3" data-name="Dégradé sans nom 3" x1="518.94" y1="263.6" x2="518.94" y2="307.25" gradientTransform="translate(-463.31 -252.97)" gradientUnits="userSpaceOnUse">
      <stop offset="0" stop-color="#b69b63"/>
      <stop offset="1" stop-color="#fae9cc"/>
    </linearGradient>
    <linearGradient id="Dégradé_sans_nom_41" data-name="Dégradé sans nom 41" x1="518.94" y1="284.57" x2="518.94" y2="350.13" gradientTransform="translate(-463.31 -252.97)" gradientUnits="userSpaceOnUse">
      <stop offset="0" stop-color="#9c8153"/>
      <stop offset="1" stop-color="#f4e8c8"/>
    </linearGradient>
    <linearGradient id="Dégradé_sans_nom_41-2" data-name="Dégradé sans nom 41" x1="505.12" y1="284.57" x2="505.12" y2="350.13" xlink:href="#Dégradé_sans_nom_41"/>
    <linearGradient id="Dégradé_sans_nom_3-2" data-name="Dégradé sans nom 3" x1="513.88" y1="263.6" x2="513.88" y2="307.25" xlink:href="#Dégradé_sans_nom_3"/>
    <linearGradient id="Dégradé_sans_nom_41-3" data-name="Dégradé sans nom 41" x1="540.76" y1="284.57" x2="540.76" y2="350.13" xlink:href="#Dégradé_sans_nom_41"/>
    <linearGradient id="Dégradé_sans_nom_3-3" data-name="Dégradé sans nom 3" x1="528.67" y1="263.6" x2="528.67" y2="307.25" xlink:href="#Dégradé_sans_nom_3"/>
    <linearGradient id="Dégradé_sans_nom_3-4" data-name="Dégradé sans nom 3" x1="533.37" y1="263.6" x2="533.37" y2="307.25" xlink:href="#Dégradé_sans_nom_3"/>
    <linearGradient id="Dégradé_sans_nom_41-4" data-name="Dégradé sans nom 41" x1="523.86" y1="284.57" x2="523.86" y2="350.13" xlink:href="#Dégradé_sans_nom_41"/>
    <linearGradient id="Dégradé_sans_nom_41-5" data-name="Dégradé sans nom 41" x1="509.98" y1="284.57" x2="509.98" y2="350.13" xlink:href="#Dégradé_sans_nom_41"/>
    <linearGradient id="Dégradé_sans_nom_3-5" data-name="Dégradé sans nom 3" x1="498.34" y1="263.6" x2="498.34" y2="307.25" xlink:href="#Dégradé_sans_nom_3"/>
    <linearGradient id="Dégradé_sans_nom_3-6" data-name="Dégradé sans nom 3" x1="518.94" y1="263.6" x2="518.94" y2="307.25" xlink:href="#Dégradé_sans_nom_3"/>
    <linearGradient id="Dégradé_sans_nom_41-6" data-name="Dégradé sans nom 41" x1="518.94" y1="284.57" x2="518.94" y2="350.13" xlink:href="#Dégradé_sans_nom_41"/>
    <linearGradient id="Dégradé_sans_nom_41-7" data-name="Dégradé sans nom 41" x1="540.95" y1="284.57" x2="540.95" y2="350.13" xlink:href="#Dégradé_sans_nom_41"/>
    <linearGradient id="Dégradé_sans_nom_41-8" data-name="Dégradé sans nom 41" x1="519.06" y1="284.57" x2="519.06" y2="350.13" xlink:href="#Dégradé_sans_nom_41"/>
    <linearGradient id="Dégradé_sans_nom_3-7" data-name="Dégradé sans nom 3" x1="519.06" y1="263.6" x2="519.06" y2="307.25" xlink:href="#Dégradé_sans_nom_3"/>
    <linearGradient id="Dégradé_sans_nom_2" data-name="Dégradé sans nom 2" x1="496.58" y1="263.6" x2="496.58" y2="307.25" gradientTransform="translate(-463.31 -252.97)" gradientUnits="userSpaceOnUse">
      <stop offset="0" stop-color="#b69b63"/>
      <stop offset=".73" stop-color="#e7d3ae"/>
      <stop offset="1" stop-color="#fae9cc"/>
    </linearGradient>
  </defs>
  <g id="Content">
    <g>
      <circle class="cls-18" cx="55.63" cy="55.63" r="54.47"/>
      <g>
        <path class="cls-6" d="M84.9,63.42c-.71.75-1.45,1.45-2.21,2.11-.27.23-.54.46-.81.68-.28.22-.55.45-.84.66-.74.56-1.49,1.07-2.27,1.56-.27.17-.55.33-.83.5-.28.16-.55.33-.83.48-3.7,2-7.73,3.21-11.84,3.64,1.56-1.56,2.95-3.27,4.16-5.1,2.44-.65,4.77-1.64,6.95-2.89.26-.15.52-.3.78-.46.26-.16.52-.32.77-.49.83-.54,1.63-1.12,2.4-1.74.26-.21.51-.42.76-.64.25-.22.5-.44.74-.66,1.47-1.34,2.8-2.84,3.97-4.44l-7.24.48c.5,1.14.93,2.29,1.28,3.45-.78.66-1.59,1.28-2.44,1.86-.62-1.77-1.41-3.47-2.35-5.08l-2.88.19c-.81,3.11-2.08,6.12-3.83,8.89-.22.35-.45.71-.69,1.05-.24.34-.48.68-.74,1.02-1.04,1.38-2.2,2.69-3.49,3.91-.29.28-.59.54-.89.81-.34.3-.69.6-1.04.88-.36.29-.72.58-1.09.85-3.03,2.26-6.27,3.87-9.6,4.88-.67-.78-1.29-1.6-1.87-2.45,2.2-.77,4.29-1.81,6.23-3.07.35-.23.69-.46,1.03-.71.33-.23.65-.47.97-.72,1.55-1.19,2.98-2.53,4.28-3.99.25-.29.5-.58.74-.88.24-.29.47-.59.7-.89,2.12-2.79,3.76-5.93,4.79-9.29l-5.34.36c-6.42,4.13-6.7,6.64-6.7,6.64,0,0-.28-2.51-6.7-6.64l-6.3-.42c-.07.48-.12.97-.16,1.46-.51-.5-1-1.03-1.47-1.57l-2.34-.16c1.13,1.42,2.37,2.75,3.73,3.95.29.25.58.5.88.74.29.24.59.47.88.69,4.31,3.28,9.48,5.42,14.96,5.89-1.33,1.35-2.78,2.58-4.35,3.65-3.47-.78-6.82-2.13-9.89-4.07-.35-.22-.7-.44-1.05-.68-.35-.24-.7-.5-1.04-.76-1.38-1.04-2.69-2.2-3.91-3.49-.28-.3-.54-.61-.81-.92-.3-.34-.6-.67-.88-1.01-.3-.37-.57-.74-.85-1.12-.77-1.04-1.46-2.1-2.08-3.18l-10.07-.68c-2.35,3.75-3.87,8.03-4.27,12.56.52,1.38,1.12,2.72,1.79,4.02,4.9,3.67,10.92,5.87,17.35,5.87.45,0,.91-.01,1.36-.03.16,0,.33-.02.49-.02.45.76.91,1.51,1.42,2.23-.17,0-.35.01-.52.01-6.87,0-13.6-2.25-19.11-6.27,6.63,11.31,18.9,18.91,32.95,18.91,2.62,0,5.19-.27,7.66-.77-5.46-1.11-10.8-3.74-15.45-8.13-.75-.71-1.46-1.45-2.12-2.22-.23-.26-.45-.53-.67-.8-.22-.27-.44-.55-.65-.82-.56-.74-1.08-1.5-1.57-2.28-.17-.27-.33-.55-.5-.83-.16-.28-.32-.55-.48-.83-2-3.7-3.21-7.73-3.64-11.84,1.56,1.56,3.27,2.95,5.1,4.16.65,2.43,1.63,4.76,2.87,6.93.15.26.3.52.46.78.16.26.32.53.49.79.55.83,1.14,1.63,1.76,2.41.21.26.42.51.63.76.21.25.43.49.65.73,4.85,5.28,11.54,8.88,18.88,9.53,1.38-.52,2.72-1.12,4.02-1.79,3.93-5.24,6.17-11.78,5.84-18.71,0-.16-.02-.33-.02-.49.76-.44,1.5-.91,2.22-1.41.12,7.04-2.13,13.98-6.25,19.63,11.18-6.56,18.74-18.63,18.9-32.5l-3.79.25c-1.32,2.47-3.01,4.86-5.11,7.08Z"/>
        <path class="cls-6" d="M55.63,54.42c-.36,1.62-2.21,3.41-2.21,3.41h4.42s-1.85-1.8-2.21-3.41Z"/>
        <path class="cls-6" d="M18.23,63.33c.48-2.39,1.25-4.75,2.33-7.04l-3.09-.21c.03,2.48.28,4.9.76,7.25Z"/>
        <polygon class="cls-6" points="57.84 57.83 53.42 57.83 55.63 60.07 57.84 57.83"/>
        <path class="cls-6" d="M96.93,62.16c-.49,3.1-1.33,6.19-2.56,9.21-8.7,21.4-33.09,31.69-54.49,22.99-14.08-5.72-23.35-18.25-25.57-32.24-1.46-3.71-4.93-6.59-4.93-6.59l-2.37.03c1.41,1.09,4.31,3.61,5.53,6.7l.04.14c2.41,15.24,12.37,27.8,26.64,33.6,10.78,4.38,22.63,4.3,33.35-.22,10.72-4.53,19.04-12.96,23.43-23.74,1.24-3.06,2.14-6.29,2.67-9.6l.04-.13c1.2-3.11,4.12-5.64,5.54-6.73-.02-.01-.03-.03-.05-.04h-2.1s-3.72,2.9-5.17,6.63Z"/>
        <path class="cls-16" d="M12.99,46.37l.02-.08c.49-2.28,1.16-4.39,2.25-7.07,4.38-10.78,12.7-19.21,23.43-23.74,10.72-4.53,22.57-4.61,33.35-.22,13.41,5.45,23.21,17.05,26.21,31.03l.02.08c.56,1.61,2.54,6.7,5.93,9.16h.05s2.39-.06,2.39-.06l-.94-.51c-3.58-1.95-5.76-7.74-6.2-8.98-3.1-14.38-13.18-26.31-26.98-31.92-11.1-4.51-23.3-4.43-34.34.23-11.04,4.66-19.61,13.34-24.12,24.44-1.11,2.74-1.8,4.91-2.31,7.24-.43,1.24-2.62,7.03-6.2,8.98l-.94.51,2.39.1c3.42-2.45,5.42-7.59,5.98-9.2Z"/>
        <path class="cls-11" d="M104.24,55.53h-.05s.03.03.05.04c-1.42,1.09-4.34,3.63-5.54,6.73l-.04.13c-.53,3.31-1.42,6.54-2.67,9.6-4.38,10.78-12.7,19.21-23.43,23.74-10.72,4.53-22.57,4.6-33.35.22-14.27-5.8-24.23-18.36-26.64-33.6l-.04-.14c-1.21-3.09-4.12-5.61-5.53-6.7l-2.39-.1.88.6s4.34,2.95,5.81,6.61c2.5,15.66,12.75,28.56,27.42,34.52,5.46,2.22,11.18,3.33,16.9,3.33,5.91,0,11.83-1.19,17.44-3.55,11.04-4.66,19.61-13.34,24.12-24.44,1.27-3.13,2.19-6.43,2.74-9.82,1.46-3.67,5.78-6.61,5.82-6.64l.88-.6-2.39.06Z"/>
        <path class="cls-3" d="M42.46,59.22c.04-.49.1-.97.16-1.46l-1.64-.11c.47.54.96,1.06,1.47,1.57Z"/>
        <path class="cls-13" d="M49.07,43.25c.24-.3.49-.59.74-.88,1.29-1.46,2.73-2.8,4.28-3.99.32-.24.64-.49.97-.72.34-.24.68-.48,1.03-.71,1.94-1.26,4.03-2.3,6.23-3.07-.58-.85-1.21-1.66-1.87-2.45-3.33,1.01-6.57,2.62-9.6,4.88-.37.27-.73.56-1.09.85-.13.1-.25.21-.38.31,0,0,0,0,0,0-.22.19-.44.38-.66.57-.3.26-.6.53-.89.81-1.29,1.22-2.45,2.53-3.49,3.91-.25.34-.5.67-.74,1.02-.24.35-.46.7-.69,1.05-1.96,3.11-3.33,6.51-4.11,10.02.67.98,1.4,1.91,2.18,2.8l1.64.11c.68-4.98,2.73-9.67,5.74-13.63.23-.3.46-.6.7-.89Z"/>
        <path class="cls-9" d="M77.4,62.41c.85-.57,1.66-1.2,2.44-1.86-.35-1.16-.78-2.31-1.28-3.45l-3.51.23c.94,1.61,1.73,3.31,2.35,5.08Z"/>
        <path class="cls-10" d="M74.09,49.76c-.28-.34-.59-.68-.88-1.01-.27-.31-.52-.62-.81-.92-1.22-1.29-2.53-2.45-3.91-3.49-.34-.26-.69-.51-1.04-.76-.34-.24-.69-.46-1.05-.68-3.07-1.94-6.43-3.29-9.89-4.07-1.56,1.07-3.02,2.29-4.35,3.65,5.48.48,10.65,2.61,14.96,5.89.3.23.59.46.88.69.3.24.59.49.88.74,1.47,1.3,2.81,2.73,4,4.28.24.32.49.64.72.96.24.34.48.69.7,1.04.26.41.51.82.75,1.24l3.51-.23c-.94-2.14-2.14-4.23-3.63-6.23-.28-.37-.55-.75-.85-1.12Z"/>
        <path class="cls-12" d="M68.79,52.04c-.16,1.98-.55,3.92-1.12,5.79l4.5-.3c.1-.38.19-.75.28-1.13-1.07-1.57-2.3-3.04-3.66-4.36Z"/>
        <path class="cls-15" d="M62.88,67.12c-.23.3-.46.6-.7.89-.24.3-.49.59-.74.88-1.29,1.46-2.73,2.8-4.28,3.99-.32.24-.64.49-.97.72-.34.24-.68.48-1.03.71-1.94,1.26-4.04,2.3-6.23,3.07.58.85,1.21,1.66,1.87,2.45,3.33-1.01,6.57-2.62,9.6-4.88.37-.27.73-.56,1.09-.85.35-.29.7-.58,1.04-.88.3-.26.6-.53.89-.81,1.29-1.22,2.45-2.53,3.49-3.91.25-.34.5-.67.74-1.02.24-.35.46-.7.69-1.05,1.75-2.77,3.03-5.78,3.83-8.89l-4.5.3c-1.03,3.36-2.67,6.5-4.79,9.29Z"/>
        <path class="cls-17" d="M36.32,60.38c.28.37.55.75.85,1.12.28.34.59.68.88,1.01.27.31.52.62.81.92,1.22,1.29,2.53,2.45,3.91,3.49.34.26.69.51,1.04.76.34.24.69.46,1.05.68,3.07,1.94,6.43,3.29,9.89,4.07,1.56-1.07,3.02-2.29,4.35-3.65-5.48-.48-10.65-2.61-14.96-5.89-.3-.23-.59-.46-.88-.69-.3-.24-.59-.49-.88-.74-1.36-1.2-2.6-2.53-3.73-3.95l-4.41-.3c.62,1.08,1.31,2.14,2.08,3.18Z"/>
        <path class="cls-4" d="M37.66,56.2c-.24-.34-.48-.69-.7-1.04-1.28-1.97-2.33-4.09-3.1-6.31-.85.57-1.66,1.2-2.44,1.86.67,2.22,1.61,4.4,2.82,6.5l4.41.3c-.09-.11-.18-.22-.27-.33-.24-.32-.49-.64-.72-.96Z"/>
        <path class="cls-2" d="M55.63,46.43c-2.29,9.88-6.7,11.76-6.7,11.76l4.49-.36s1.85-1.8,2.21-3.41c.36,1.62,2.21,3.41,2.21,3.41l4.49.36s-4.41-1.89-6.7-11.76Z"/>
        <path class="cls-5" d="M55.63,60.07l-2.21-2.24-4.49.36c6.42,4.13,6.7,6.64,6.7,6.64,0,0,.28-2.51,6.7-6.64l-4.49-.36-2.21,2.24Z"/>
        <path class="cls-1" d="M81.83,61.06c-.24.22-.49.44-.74.66-.25.22-.5.43-.76.64-.77.62-1.57,1.2-2.4,1.74-.25.17-.51.33-.77.49-.26.16-.52.31-.78.46-2.18,1.25-4.52,2.24-6.95,2.89-1.21,1.83-2.6,3.54-4.16,5.1,4.11-.43,8.15-1.64,11.84-3.64.28-.15.55-.32.83-.48.28-.16.56-.32.83-.5.77-.48,1.53-1,2.27-1.56.28-.21.56-.44.84-.66.27-.22.55-.44.81-.68.76-.66,1.5-1.36,2.21-2.11,2.1-2.22,3.79-4.61,5.11-7.08l-4.21.28c-1.18,1.6-2.51,3.09-3.97,4.44Z"/>
        <path class="cls-8" d="M14.32,62.13c2.21,13.99,11.49,26.52,25.57,32.24,21.4,8.7,45.79-1.6,54.49-22.99,1.23-3.03,2.07-6.12,2.56-9.21,1.44-3.73,5.17-6.63,5.17-6.63l-8.3.55c-.16,13.86-7.72,25.94-18.9,32.5,4.11-5.65,6.36-12.58,6.25-19.63-.72.5-1.47.97-2.22,1.41,0,.16.02.33.02.49.33,6.93-1.91,13.47-5.84,18.71-1.3.67-2.64,1.27-4.02,1.79-7.35-.65-14.03-4.25-18.88-9.53-.22-.24-.44-.48-.65-.73-.21-.25-.43-.5-.63-.76-.63-.77-1.22-1.58-1.76-2.41-.17-.26-.33-.53-.49-.79-.16-.26-.31-.52-.46-.78-1.25-2.17-2.22-4.5-2.87-6.93-1.83-1.21-3.55-2.6-5.1-4.16.43,4.11,1.64,8.15,3.64,11.84.15.28.32.55.48.83.16.28.33.56.5.83.49.78,1.01,1.54,1.57,2.28.21.28.43.55.65.82.22.27.44.54.67.8.67.77,1.37,1.51,2.12,2.22,4.66,4.4,9.99,7.03,15.45,8.13-2.48.5-5.04.77-7.66.77-14.05,0-26.33-7.6-32.95-18.91,5.51,4.01,12.24,6.27,19.11,6.27.17,0,.35,0,.52-.01-.5-.72-.97-1.47-1.42-2.23-.16,0-.33.02-.49.02-.46.02-.91.03-1.36.03-6.43,0-12.45-2.2-17.35-5.87-.67-1.3-1.27-2.64-1.79-4.02.4-4.53,1.92-8.81,4.27-12.56l-3.61-.24c-1.08,2.29-1.85,4.66-2.33,7.04-.48-2.34-.74-4.77-.76-7.25l-8.07-.54s3.47,2.88,4.93,6.59Z"/>
        <path class="cls-14" d="M17.45,55.63c0-14.05,7.6-26.33,18.91-32.95-4.11,5.65-6.36,12.58-6.25,19.63.72-.5,1.47-.97,2.22-1.41,0-.16-.02-.33-.02-.49-.33-6.93,1.91-13.47,5.84-18.71,1.3-.67,2.64-1.27,4.02-1.79,7.35.65,14.03,4.25,18.88,9.53.22.24.44.48.65.73.21.25.43.5.63.76.62.77,1.22,1.58,1.76,2.41.17.26.33.53.49.79.16.26.31.52.46.78,1.25,2.17,2.22,4.5,2.87,6.93,1.83,1.21,3.55,2.6,5.1,4.16-.43-4.11-1.64-8.15-3.64-11.84-.15-.28-.32-.55-.48-.83-.16-.28-.32-.56-.5-.83-.49-.78-1.01-1.54-1.57-2.28-.21-.28-.43-.55-.65-.82-.22-.27-.44-.54-.67-.8-.67-.77-1.37-1.51-2.12-2.22-4.66-4.4-9.99-7.03-15.45-8.14,2.48-.5,5.04-.77,7.66-.77,14.05,0,26.33,7.6,32.95,18.91-5.51-4.01-12.24-6.27-19.11-6.27-.17,0-.35,0-.52.01.51.72.97,1.47,1.42,2.23.16,0,.33-.02.49-.02.46-.02.91-.03,1.36-.03,6.43,0,12.45,2.2,17.35,5.87.67,1.3,1.27,2.64,1.79,4.02-.47,5.31-2.49,10.27-5.56,14.45l4.21-.28c1.45-2.72,2.44-5.54,3.02-8.41.51,2.49.78,5.06.78,7.7,0,.15,0,.31,0,.46l8.3-.55c-3.59-1.95-5.11-7.54-5.57-8.86v.23c-2.8-13.08-11.82-24.59-25.15-30.01-21.39-8.7-45.79,1.6-54.48,23-.94,2.32-1.65,4.68-2.16,7.05v-.26c-.46,1.32-1.76,6.92-5.34,8.86l8.07.54c0-.15-.01-.3-.01-.45Z"/>
        <path class="cls-7" d="M29.43,50.2c.24-.22.49-.44.74-.66.25-.22.5-.43.76-.64.77-.62,1.57-1.2,2.4-1.74.25-.17.51-.33.77-.49.26-.16.52-.31.78-.46,2.18-1.25,4.51-2.24,6.95-2.89,1.21-1.83,2.6-3.54,4.16-5.1-4.11.43-8.15,1.64-11.84,3.64-.28.15-.55.32-.83.48-.28.16-.56.32-.83.5-.77.48-1.53,1-2.27,1.56-.28.21-.56.44-.84.66-.27.22-.55.44-.81.68-.76.66-1.5,1.36-2.21,2.11-2.49,2.63-4.4,5.48-5.8,8.45l3.61.24c1.46-2.34,3.24-4.47,5.26-6.33Z"/>
      </g>
    </g>
  </g>
</svg>