<?xml version="1.0" encoding="UTF-8"?><svg id="Calque_2" xmlns="http://www.w3.org/2000/svg" viewBox="0 0 239.7 204.81"><defs><style>.cls-1{fill:#fae9cc;stroke-width:0px;}</style></defs><g id="Calque_5"><path class="cls-1" d="m237.29,156.07c-1.54-1.53-3.62-2.4-5.8-2.35l-25.22.27V26.7c0-14.72-11.98-26.7-26.7-26.7H25.45C11.42,0,0,11.42,0,25.45v17.32c0,4.49,3.64,8.12,8.12,8.12h26.78v127.85c0,14.37,11.69,26.06,26.06,26.06h153.88c13.7,0,24.84-11.14,24.84-24.84v-18.12c0-2.17-.87-4.25-2.41-5.78ZM16.25,25.45c0-5.07,4.13-9.2,9.2-9.2h131.24c-.89,2.58-1.35,5.32-1.33,8.13l.08,10.26H16.25v-9.2Zm34.91,153.3V50.89h112.47c2.17,0,4.24-.86,5.77-2.4,1.53-1.54,2.37-3.62,2.36-5.79l-.14-18.45c-.02-2.13.8-4.15,2.31-5.66s3.51-2.35,5.64-2.35c5.76,0,10.45,4.69,10.45,10.45v153.27c0,3.02.54,5.91,1.53,8.59H60.97c-5.41,0-9.81-4.4-9.81-9.81Zm172.29,1.22c0,4.74-3.85,8.59-8.59,8.59s-8.59-3.85-8.59-8.59v-9.73l17.18-.18v9.91Z"/><path class="cls-1" d="m154.64,68.51h0s-.26-.01-.26-.01h-86.21c-4.49,0-8.12,3.64-8.12,8.12s3.64,8.12,8.12,8.12h86.48c4.36-.15,7.86-3.73,7.86-8.12s-3.5-7.97-7.86-8.11Z"/><path class="cls-1" d="m154.37,102.61h-86.21c-4.49,0-8.12,3.64-8.12,8.12s3.64,8.12,8.12,8.12h86.21c4.49,0,8.12-3.64,8.12-8.12s-3.64-8.12-8.12-8.12Z"/><path class="cls-1" d="m119.85,136.73h-51.69c-4.49,0-8.12,3.64-8.12,8.12s3.64,8.12,8.12,8.12h51.69c4.49,0,8.12-3.64,8.12-8.12s-3.64-8.12-8.12-8.12Z"/></g></svg>