<?xml version="1.0" encoding="UTF-8"?>
<svg id="Calque_2" data-name="Calque 2" xmlns="http://www.w3.org/2000/svg" viewBox="0 0 355.53 239.08">
  <defs>
    <style>
      .cls-1 {
        fill: #fae9cc;
      }
    </style>
  </defs>
  <g id="Content">
    <path class="cls-1" d="M345.23,47.33l-73.95,92.47c-2.26,3.15-6.99,3.15-9.25,0L182.39,2.36c-2.26-3.15-6.99-3.15-9.25,0l-79.63,137.44c-2.26,3.15-6.99,3.15-9.25,0L10.3,47.33C7.1,42.87,0,45.11,0,50.58v182.89c0,3.1,2.54,5.61,5.67,5.61h166.42s11.35,0,11.35,0h166.42s0,0,0,0c3.13,0,5.67-2.51,5.67-5.61V50.58c0-5.47-7.1-7.71-10.3-3.25ZM179.28,200.78s-8.75-18.92-28.19-27.96c0,0,16.05-17.91,28.19-49.49,11.48,31.58,28.19,49.49,28.19,49.49-19.44,9.04-28.19,27.96-28.19,27.96Z"/>
  </g>
</svg>